<?xml version="1.0" standalone="no"?>
<!DOCTYPE svg PUBLIC "-//W3C//DTD SVG 20010904//EN"
 "http://www.w3.org/TR/2001/REC-SVG-20010904/DTD/svg10.dtd">
<svg version="1.0" xmlns="http://www.w3.org/2000/svg"
 width="512.000000pt" height="512.000000pt" viewBox="0 0 512.000000 512.000000"
 preserveAspectRatio="xMidYMid meet">

<g transform="translate(0.000000,512.000000) scale(0.100000,-0.100000)"
fill="#000000" stroke="none">
<path d="M2215 3971 c-24 -10 -300 -253 -675 -591 -750 -676 -737 -664 -761
-715 -25 -54 -25 -156 0 -212 26 -57 1327 -1267 1399 -1300 64 -31 141 -30
207 1 145 67 189 246 92 373 -18 23 -211 207 -431 410 l-398 368 1268 5 1269
5 40 22 c90 48 135 123 135 223 0 100 -45 175 -135 223 l-40 22 -1262 5 -1262
5 428 386 c474 429 471 425 471 541 -1 103 -54 188 -145 229 -53 24 -147 24
-200 0z"/>
</g>
</svg>
