<?xml version="1.0" standalone="no"?>
<!DOCTYPE svg PUBLIC "-//W3C//DTD SVG 20010904//EN"
 "http://www.w3.org/TR/2001/REC-SVG-20010904/DTD/svg10.dtd">
<svg version="1.0" xmlns="http://www.w3.org/2000/svg"
 width="512.000000pt" height="512.000000pt" viewBox="0 0 512.000000 512.000000"
 preserveAspectRatio="xMidYMid meet">

<g transform="translate(0.000000,512.000000) scale(0.100000,-0.100000)"
fill="#000000" stroke="none">
<path d="M3030 5105 c-1162 -141 -1909 -1318 -1544 -2433 62 -191 177 -405
302 -565 l46 -58 -147 -147 -147 -147 -62 62 c-35 33 -73 66 -85 72 -30 15
-99 14 -131 -3 -15 -8 -302 -291 -639 -628 -547 -548 -612 -617 -619 -651 -14
-78 -1 -96 258 -354 206 -205 249 -242 280 -248 83 -16 61 -35 716 618 337
337 620 624 628 639 17 32 18 101 3 131 -6 12 -39 50 -72 85 l-62 62 147 147
147 147 58 -46 c160 -125 374 -240 565 -302 892 -292 1860 122 2263 966 183
385 230 795 139 1207 -209 935 -1094 1562 -2044 1446z m307 -611 c86 -64 86
-183 1 -247 -20 -15 -52 -22 -129 -29 -356 -30 -625 -197 -795 -496 -73 -126
-124 -317 -124 -460 0 -159 -206 -211 -282 -72 -17 30 -19 48 -14 133 19 308
138 581 351 805 232 244 575 394 887 388 61 -1 82 -5 105 -22z"/>
</g>
</svg>
